<?xml version="1.0" encoding="utf-8"?>
<!-- Generator: Adobe Illustrator 12.0.0, SVG Export Plug-In . SVG Version: 6.00 Build 51448)  -->
<!DOCTYPE svg PUBLIC "-//W3C//DTD SVG 1.1//EN" "http://www.w3.org/Graphics/SVG/1.1/DTD/svg11.dtd" [
	<!ENTITY ns_svg "http://www.w3.org/2000/svg">
	<!ENTITY ns_xlink "http://www.w3.org/1999/xlink">
]>
<svg  version="1.1" id="Ebene_1" xmlns="&ns_svg;" xmlns:xlink="&ns_xlink;" width="720.729" height="232.304"
	 viewBox="0 0 720.729 232.304" overflow="visible" enable-background="new 0 0 720.729 232.304" xml:space="preserve">
<g id="layer1">
	<path id="rect1872" fill="#E2F3F7" stroke="#3A53A4" stroke-width="5.9107" d="M263.502,4.745c0,74.868,0,149.735,0,224.604
		c60.138,0,60.162,0,120.302,0c76.414-61.441,74.43-169.713,0-226.394c-60.141,0-60.164,0-120.302,0V3.85V4.745z"/>
	<path id="path5430" fill="none" stroke="#3A53A4" stroke-width="6.25" d="M638.033,110.341H441.547l0,0"/>
	<g enable-background="new    ">
		<path fill="#010101" d="M694.785,138.958c-15.598,0-24.846-11.835-24.846-26.884c0-15.833,10.189-27.668,25.709-27.668
			c16.224,0,25.08,12.148,25.08,26.728c0,17.399-10.424,27.824-25.865,27.824H694.785z M695.334,129.474
			c8.073,0,12.697-7.603,12.697-17.948c0-9.483-4.467-17.636-12.697-17.636c-8.229,0-12.854,7.995-12.854,17.871
			c0,9.954,4.781,17.713,12.775,17.713H695.334z"/>
	</g>
	<path id="path5441" fill="#FFFFFF" stroke="#3A53A4" stroke-width="5.6493" d="M651.488,110.605
		c0,8.166-6.619,14.785-14.783,14.785c-8.166,0-14.785-6.619-14.785-14.785c0-8.164,6.619-14.783,14.785-14.783
		C644.869,95.822,651.488,102.441,651.488,110.605L651.488,110.605z"/>
	<path id="path7280" fill="#3A53A4" stroke="#3A53A4" stroke-width="6.25" d="M259.164,40.823H93.792l0,0"/>
	<path id="path7282" fill="none" stroke="#3A53A4" stroke-width="6.25" d="M259.144,190.283H93.772l0,0"/>
	<g enable-background="new    ">
		<path fill="#010101" d="M13.12,51.296l-3.008,11.072H0l13.184-43.136H25.92l13.439,43.136H28.864l-3.328-11.072H13.12z M24.064,44
			l-2.688-9.151c-0.704-2.561-1.472-5.824-2.112-8.32h-0.192c-0.576,2.561-1.28,5.824-1.92,8.32L14.528,44H24.064z"/>
	</g>
	<g enable-background="new    ">
		<path fill="#010101" d="M7.137,173.666c2.56-0.513,7.68-0.96,12.607-0.96c5.952,0,9.6,0.575,12.736,2.432
			c3.008,1.6,5.12,4.544,5.12,8.512c0,3.776-2.24,7.296-7.04,9.152v0.128c4.928,1.279,8.576,5.056,8.576,10.624
			c0,3.968-1.792,7.039-4.48,9.151c-3.136,2.496-8.384,3.904-16.96,3.904c-4.8,0-8.384-0.32-10.56-0.641V173.666z M16.8,190.113H20
			c5.184,0,7.872-2.111,7.872-5.312c0-3.265-2.496-4.992-6.912-4.992c-2.176,0-3.392,0.128-4.16,0.32V190.113z M16.8,209.249
			c0.96,0.192,2.112,0.192,3.776,0.192c4.416,0,8.32-1.729,8.32-6.272c0-4.352-3.904-6.079-8.768-6.079H16.8V209.249z"/>
	</g>
	<path id="path12620" fill="#FFFFFF" stroke="#3A53A4" stroke-width="9.4155" d="M106.772,38.986
		c0,8.165-6.619,14.785-14.784,14.785s-14.784-6.62-14.784-14.785s6.619-14.784,14.784-14.784S106.772,30.821,106.772,38.986
		L106.772,38.986z"/>
	<path id="path12622" fill="#FFFFFF" stroke="#3A53A4" stroke-width="9.4155" d="M106.96,190.349
		c0,8.166-6.619,14.785-14.784,14.785s-14.784-6.619-14.784-14.785s6.619-14.785,14.784-14.785S106.96,182.183,106.96,190.349
		L106.96,190.349z"/>
</g>
</svg>
